<svg xmlns="http://www.w3.org/2000/svg" xmlns:xlink="http://www.w3.org/1999/xlink" id="Capa_1" x="0px" y="0px" viewBox="0 0 512 512" style="enable-background:new 0 0 512 512;" xml:space="preserve">
<style type="text/css">
	.st0{fill:url(#SVGID_1_);}
	.st1{fill:url(#SVGID_2_);}
</style>
<g>
	<g>
		
			<linearGradient id="SVGID_1_" gradientUnits="userSpaceOnUse" x1="256" y1="2" x2="256" y2="514" gradientTransform="matrix(1 0 0 -1 0 514)">
			<stop offset="0" style="stop-color:#FFC8D1"></stop>
			<stop offset="1" style="stop-color:#FFF6F7"></stop>
		</linearGradient>
		<circle class="st0" cx="256" cy="256" r="256"></circle>
	</g>
	<g>
		<g>
			
				<linearGradient id="SVGID_2_" gradientUnits="userSpaceOnUse" x1="312.6661" y1="1034.077" x2="312.6661" y2="629.7829" gradientTransform="matrix(0.707 0.707 0.707 -0.707 -530.697 638.245)">
				<stop offset="0" style="stop-color:#FD3A84"></stop>
				<stop offset="1" style="stop-color:#FFA68D"></stop>
			</linearGradient>
			<path class="st1" d="M265.7,232.3l14,14c3.7,3.7,9.6,3.5,13.2-0.2l82.2-86.4l8.1,8.1c3.6,3.6,9.4,3.6,13,0s3.6-9.4,0-13l-8.4-8.4     l15.2-16c5.6-5.9,5.5-15.3-0.2-21.1s-15.2-5.8-21-0.3l-16,15.2l-8.4-8.4c-3.6-3.6-9.4-3.6-13,0s-3.6,9.4,0,13l8.1,8.1l-86.4,82.2     C262.2,222.7,262,228.6,265.7,232.3z M123.5,375.5l-6.8,6.8c-3.6,3.6-3.6,9.4,0,13s9.4,3.6,13,0l6.8-6.8c-2.2-1.9-4.5-4-6.8-6.2     S125.5,377.7,123.5,375.5z M316.9,247.6l-10.7,11.2c-10.4,10.9-28.3,11.7-39.5,0.5l-14-14c-11.2-11.2-10.5-29,0.5-39.5l11.2-10.7     c-26.1-5.1-54.4,5.3-69.5,30.5l-1.6,2.3c-2.1,3.6-1.6,8.3,1.4,11.3c3.6,3.6,3.6,9.4,0,13c-10.8,10.8-28.2,10.8-39,0     c-3.1-3.1-9.5-2.5-13.1-0.1C100.8,280,93,337.4,123.5,375.5l19.2-19.2c3.6-3.6,9.4-3.6,13,0c3.6,3.6,3.6,9.4,0,13l-19.2,19.2     c38.2,30.7,95.6,22.6,123.3-19.1l1-1.6c2.3-3.6,1.9-8.4-1.2-11.6c-10.8-10.8-10.8-28.2,0-39c3.6-3.6,9.4-3.6,13,0     c3,3,7.7,3.5,11.3,1.4l2.3-1.6C311.5,302.1,321.9,273.7,316.9,247.6L316.9,247.6z M214.2,323.8c-3.6,3.6-9.4,3.6-13,0l-13-13     c-3.6-3.6-3.6-9.4,0-13c3.6-3.6,9.4-3.6,13,0l13,13C217.9,314.4,217.9,320.1,214.2,323.8z M400.5,211.7c-4.5-2.4-10-0.7-12.4,3.7     l-90.9,168.9c-2.4,4.4-0.8,10,3.7,12.4c4.5,2.4,10,0.7,12.4-3.7l90.9-168.9C406.6,219.7,404.9,214.1,400.5,211.7L400.5,211.7z"></path>
		</g>
	</g>
</g>
</svg>